<svg xmlns="http://www.w3.org/2000/svg" width="29" height="21" viewBox="0 0 29 21">
    <g fill="none" fill-rule="nonzero">
        <path fill="#CC212D" d="M25.692.105H3.212A3.212 3.212 0 0 0 0 3.317V7.33h28.904V3.317A3.212 3.212 0 0 0 25.691.105"/>
        <g fill="#FBD116">
            <path d="M12.383 13.754h4.163l-2.082-1.513zM15.263 9.787h2.58l-2.087 1.517.795 2.45h12.352V7.33H14.464zM13.173 11.305l-2.089-1.517h2.582l.798-2.456H0v6.423h12.377z"/>
        </g>
        <path fill="#288541" d="M16.553 13.759l-.007-.005h-4.163l-.008.005.002-.005H0v4.014a3.212 3.212 0 0 0 3.211 3.212h22.48a3.212 3.212 0 0 0 3.212-3.212v-4.014H16.551l.002.005z"/>
        <path fill="#000" d="M11.085 9.787l2.09 1.517-.798 2.45-.002.005.008-.005 2.081-1.512 2.082 1.512.008.005-.003-.005-.795-2.45 2.088-1.517h-2.581l-.799-2.456-.798 2.456h-2.58z"/>
    </g>
</svg>
