<svg xmlns="http://www.w3.org/2000/svg" width="27" height="36" viewBox="0 0 27 36">
    <path fill="#252B33" fill-rule="nonzero" d="M26.311 26.35c.38 0 .689.315.689.703v8.244a.696.696 0 0 1-.689.703h-9.697a.696.696 0 0 1-.689-.703c0-.388.309-.703.69-.703h9.007v-6.838H1.378v6.838h9.008c.38 0 .689.315.689.703a.696.696 0 0 1-.69.703H.69A.696.696 0 0 1 0 35.297v-8.244c0-.388.308-.703.689-.703H26.31zm-12.47 8.344c.247.15.379.453.322.74a.7.7 0 0 1-.675.566.697.697 0 0 1-.652-.476.717.717 0 0 1 .223-.778c.224-.18.538-.2.782-.052zM6.68 30.472c.38 0 .689.315.689.703a.696.696 0 0 1-.69.703H4.798a.696.696 0 0 1-.689-.703c0-.388.308-.703.689-.703H6.68zm5.174 0c.38 0 .69.315.69.703a.696.696 0 0 1-.69.703H9.971a.696.696 0 0 1-.689-.703c0-.388.309-.703.69-.703h1.882zm5.175 0c.38 0 .689.315.689.703a.696.696 0 0 1-.69.703h-1.882a.696.696 0 0 1-.69-.703c0-.388.31-.703.69-.703h1.883zm5.174 0c.38 0 .689.315.689.703a.696.696 0 0 1-.689.703H20.32a.696.696 0 0 1-.689-.703c0-.388.309-.703.69-.703h1.882zM13.5 0c3.671 0 6.658 3.048 6.658 6.795a6.837 6.837 0 0 1-2.62 5.4c3.059.182 5.492 2.78 5.492 5.947v4.19a.696.696 0 0 1-.69.703H4.66a.696.696 0 0 1-.689-.703v-4.19c0-3.167 2.433-5.765 5.492-5.948a6.837 6.837 0 0 1-2.62-5.399C6.842 3.048 9.83 0 13.5 0zm3.692 13.59H9.808c-2.46 0-4.46 2.042-4.46 4.552v3.486h16.304v-3.486c0-2.51-2-4.552-4.46-4.552zM13.5 1.406c-2.911 0-5.28 2.418-5.28 5.39 0 2.97 2.369 5.388 5.28 5.388s5.28-2.418 5.28-5.389-2.369-5.389-5.28-5.389z"/>
</svg>
