<svg xmlns="http://www.w3.org/2000/svg" width="29" height="21" viewBox="0 0 29 21">
    <g fill="none" fill-rule="evenodd">
        <path fill="#060" fill-rule="nonzero" d="M28.903 17.768a3.212 3.212 0 0 1-3.211 3.212H3.212A3.212 3.212 0 0 1 0 17.768V3.317A3.212 3.212 0 0 1 3.211.105h22.48a3.212 3.212 0 0 1 3.212 3.212v14.451z"/>
        <path fill="#BB1600" fill-rule="nonzero" d="M28.903 14.557H0V6.528h28.903z"/>
        <path fill="#141414" fill-rule="nonzero" d="M25.692.105H3.212A3.212 3.212 0 0 0 0 3.317v3.211h28.903V3.317A3.212 3.212 0 0 0 25.692.105"/>
        <g fill="#EEE" fill-rule="nonzero">
            <path d="M28.903 7.33H0v-.802h28.903zM28.903 14.557H0v-.803h28.903z"/>
        </g>
        <path fill="#FFF" fill-rule="nonzero" d="M11.064 16.47l5.844-9.822c.436.12.751-.428 1.036-1.279.336-.997.61-1.674.552-1.707-.057-.035-.52.53-1.238 1.299-.62.666-.951 1.211-.614 1.533l-5.843 9.82c-.043.072.22.231.263.156"/>
        <path stroke="#141414" stroke-width=".5" d="M11.064 16.47l5.844-9.822c.436.12.751-.428 1.036-1.279.336-.997.61-1.674.552-1.707-.057-.035-.52.53-1.238 1.299-.62.666-.951 1.211-.614 1.533l-5.843 9.82c-.043.072.22.231.263.156z"/>
        <path fill="#FFF" fill-rule="nonzero" d="M17.84 16.47l-5.844-9.822c-.436.12-.751-.428-1.037-1.279-.335-.997-.608-1.674-.552-1.707.057-.035.522.53 1.238 1.299.62.666.953 1.211.616 1.533l5.842 9.82c.044.072-.218.231-.263.156"/>
        <path stroke="#141414" stroke-width=".5" d="M17.84 16.47l-5.844-9.822c-.436.12-.751-.428-1.037-1.279-.335-.997-.608-1.674-.552-1.707.057-.035.522.53 1.238 1.299.62.666.953 1.211.616 1.533l5.842 9.82c.044.072-.218.231-.263.156z"/>
        <path fill="#BB1600" fill-rule="nonzero" d="M14.452 16.548c2.001-1.502 2.964-3.502 2.964-6.022 0-2.519-.963-4.52-2.964-6.02-2.001 1.5-2.965 3.5-2.965 6.02 0 2.52.964 4.52 2.965 6.022"/>
        <path stroke="#141414" stroke-width=".5" d="M14.452 16.548c2.001-1.502 2.964-3.502 2.964-6.022 0-2.519-.963-4.52-2.964-6.02-2.001 1.5-2.965 3.5-2.965 6.02 0 2.52.964 4.52 2.965 6.022z"/>
        <path fill="#141414" fill-rule="nonzero" d="M12.123 13.714c.428-.95.637-2.007.637-3.184 0-1.176-.209-2.233-.637-3.184-.427.952-.637 2.008-.637 3.184 0 1.177.21 2.233.637 3.184"/>
        <path stroke="#141414" stroke-width=".5" d="M12.123 13.714c.428-.95.637-2.007.637-3.184 0-1.176-.209-2.233-.637-3.184-.427.952-.637 2.008-.637 3.184 0 1.177.21 2.233.637 3.184z"/>
        <path fill="#141414" fill-rule="nonzero" d="M16.782 13.714c-.426-.95-.637-2.007-.637-3.184 0-1.176.211-2.233.637-3.184.427.952.637 2.008.637 3.184 0 1.177-.21 2.233-.637 3.184"/>
        <path stroke="#141414" stroke-width=".5" d="M16.782 13.714c-.426-.95-.637-2.007-.637-3.184 0-1.176.211-2.233.637-3.184.427.952.637 2.008.637 3.184 0 1.177-.21 2.233-.637 3.184z"/>
        <g fill="#FFF" fill-rule="nonzero">
            <path d="M14.452 11.289c.245 0 .445-.34.445-.76s-.2-.76-.445-.76c-.246 0-.445.34-.445.76s.199.76.445.76M14.266 9.282c-.403-.593-.599-1.347-.599-2.265 0-.92.196-1.673.6-2.267v4.532zM14.637 9.282c.402-.593.597-1.347.597-2.265 0-.92-.195-1.673-.597-2.267v4.532zM14.266 11.77c-.403.593-.599 1.347-.599 2.266 0 .92.196 1.671.6 2.265v-4.53zM14.637 11.77c.402.593.597 1.347.597 2.266 0 .92-.195 1.671-.597 2.265v-4.53z"/>
        </g>
    </g>
</svg>
