<svg xmlns="http://www.w3.org/2000/svg" width="26" height="36" viewBox="0 0 26 36">
    <path fill="#252B33" fill-rule="nonzero" d="M14.773 0c1.573.002 2.857 1.25 2.95 2.824l.004.176v.6h6.5c.93 0 1.693.727 1.767 1.652L26 5.4v28.8a1.79 1.79 0 0 1-1.627 1.794l-.146.006H1.773c-.93 0-1.693-.727-1.767-1.652L0 34.2V5.4a1.79 1.79 0 0 1 1.627-1.794l.146-.006h6.5V3c.002-1.597 1.23-2.902 2.78-2.995L11.228 0h3.546zM9.455 4.8H1.773a.594.594 0 0 0-.583.503l-.008.097v28.8c0 .298.214.546.495.592l.096.008h22.454a.594.594 0 0 0 .583-.503l.008-.097V5.4a.598.598 0 0 0-.495-.592l-.096-.008h-7.682V6h6.5c.294 0 .538.218.584.503l.007.097V33a.598.598 0 0 1-.495.592l-.096.008H2.955a.594.594 0 0 1-.584-.503L2.364 33V6.6c0-.298.214-.546.495-.592L2.955 6h6.5V4.8zm0 2.4h-5.91v25.2h18.91V7.2h-5.91v.6a1.79 1.79 0 0 1-1.627 1.794l-.145.006h-3.546c-.93 0-1.693-.727-1.767-1.652L9.455 7.8v-.6zm7.09 21.6c.327 0 .591.269.591.6a.598.598 0 0 1-.495.592l-.096.008h-7.09a.596.596 0 0 1-.591-.6c0-.298.214-.546.495-.592l.096-.008h7.09zm1.773-2.4c.327 0 .591.269.591.6a.598.598 0 0 1-.495.592l-.096.008H7.682a.596.596 0 0 1-.591-.6c0-.298.214-.546.495-.592l.096-.008h10.636zM13 13.2c2.937 0 5.318 2.418 5.318 5.4S15.938 24 13 24c-2.937 0-5.318-2.418-5.318-5.4.003-2.981 2.382-5.397 5.318-5.4zm0 1.2c-2.283.003-4.134 1.881-4.136 4.2 0 2.32 1.851 4.2 4.136 4.2s4.136-1.88 4.136-4.2c0-2.32-1.851-4.2-4.136-4.2zm2.774 2.583a.607.607 0 0 1 .074.758l-.067.083-2.954 3a.586.586 0 0 1-.844-.008l-.066-.083-1.181-1.8a.606.606 0 0 1 .163-.832.585.585 0 0 1 .76.09l.06.076.782 1.191 2.445-2.482a.585.585 0 0 1 .828.007zM18.91 8.4v1.2h-1.182V8.4h1.182zm2.364 0v1.2H20.09V8.4h1.182zm-15.364 0v1.2H4.727V8.4H5.91zm2.364 0v1.2H7.09V8.4h1.182zm7.09-1.2h-4.727v.6c0 .298.215.546.495.592l.096.008h3.546a.594.594 0 0 0 .583-.503l.008-.097v-.6zm0-2.4h-4.727V6h4.728V4.8zm-.59-3.6h-3.546c-.93 0-1.693.727-1.767 1.652L9.455 3v.6h7.09V3c0-.994-.793-1.8-1.772-1.8z"/>
</svg>
